PathFileType	4	(X/Y/Z)	Patient4_TMGait_0pt7_02_left_49.trc.trc
DataRate	CameraRate	NumFrames	NumMarkers	Units	OrigDataRate	OrigDataStartFrame	OrigNumFrames
85.365853658537	85.365853658537	6	33	mm	85.365853658537	71	       141
Frame#	Time	Sacral			L.Shoulder			Chest			R.Shoulder			Neck			R.ASIS			L.ASIS			R.Thigh.Superior			R.Thigh.Lateral			R.Thigh.Inferior			R.Patella			L.Thigh.Superior			L.Thigh.Lateral			L.Thigh.Inferior			L.Patella			L.Shank.Superior			L.Shank.Lateral			L.Shank.Inferior			R.Shank.Superior			R.Shank.Lateral			R.Shank.Inferior			R.Heel			R.Midfoot.Superior			R.Midfoot.Lateral			R.Toe			L.Heel			L.Midfoot.Lateral			L.Midfoot.Superior			L.Toe			L.Elbow			L.Wrist			R.Elbow			R.Wrist			
		X1	Y1	Z1	X2	Y2	Z2	X3	Y3	Z3	X4	Y4	Z4	X5	Y5	Z5	X6	Y6	Z6	X7	Y7	Z7	X8	Y8	Z8	X9	Y9	Z9	X10	Y10	Z10	X11	Y11	Z11	X12	Y12	Z12	X13	Y13	Z13	X14	Y14	Z14	X15	Y15	Z15	X16	Y16	Z16	X17	Y17	Z17	X18	Y18	Z18	X19	Y19	Z19	X20	Y20	Z20	X21	Y21	Z21	X22	Y22	Z22	X23	Y23	Z23	X24	Y24	Z24	X25	Y25	Z25	X26	Y26	Z26	X27	Y27	Z27	X28	Y28	Z28	X29	Y29	Z29	X30	Y30	Z30	X31	Y31	Z31	X32	Y32	Z32	X33	Y33	Z33	

71	56.910000000000	774.904905639635	998.556347211835	430.469631202038	979.202875166956	1419.408300922725	251.919437894218	1075.943859849765	1346.633344235223	417.568081037572	990.226326476520	1429.248943354356	585.931512425586	977.860380904769	1479.985629860955	404.249408018987	995.879673558662	924.941744430924	553.808707721097	993.060185116228	954.342095962828	279.195467646543	1070.224574411032	755.643534705232	525.900007724816	1025.718769604052	632.795857077804	598.286298866262	1116.294680116225	599.681939151336	517.926837359897	1150.594190304015	518.827335590337	533.083978088703	993.518450108371	728.491958157545	303.506665277760	876.245152108492	636.568709298606	237.312487640740	933.099359564404	540.926063859765	301.011268158058	918.687490703746	474.954519341678	309.304286356856	885.701449167455	409.815991555083	300.313757880967	786.135807377692	304.664288669952	245.904490257499	823.972939243385	189.418157345279	320.096256992212	1137.760920861546	429.291339802127	544.290076938127	1087.498455974499	312.781771021820	604.471829880573	1162.124609152522	230.389213857011	554.615177146758	1078.944715549907	41.664846782923	523.277310165445	1237.803650601564	121.053244790717	566.974585649041	1160.450138094773	44.444670678789	598.693347755555	1361.750154682605	89.596671024242	597.865132271146	685.569988507372	38.292990270065	363.066712124886	759.025203088997	34.340429869571	282.093615582473	842.163602873858	95.440668389626	308.670493654286	970.809362083010	43.927432206253	280.121169556283	1065.881530949632	1113.124732349772	83.960097921041	1317.947671495105	1063.768291742819	108.262058810167	806.599815499555	1148.846871049067	710.944562329144	726.180990759034	905.715152918291	753.712424758661	
72	56.921714285714	777.504304540853	996.553021650738	433.322206949177	979.829598562670	1417.943870730349	254.480766146759	1077.040853997160	1345.747655141196	420.220853762817	990.848886877383	1428.231026219059	588.496814309411	978.406242084476	1478.652727239586	406.800578975859	998.684815617498	923.170316209864	556.079470230367	995.503616388567	953.018268397956	281.708034642978	1072.130331865445	752.034710570679	527.812548749266	1024.994099175242	629.435671569725	598.817277912878	1115.149685322348	595.847548982711	518.400345863070	1147.843776926100	514.951402229940	532.654420460472	994.457034473781	726.734488962015	305.054703150640	875.823946683337	635.868273846323	239.223700016604	932.089460382410	539.387277042090	302.367627337695	917.355538622417	473.022565987504	310.414286541925	882.937226144661	408.427470683204	301.447459631878	781.395834284324	305.103838854537	246.966805911697	817.443707119874	188.848449358295	320.408286593107	1135.401551798473	425.188635415189	543.946703934819	1084.930279973062	308.618931745390	603.561115998662	1159.239335728423	226.382384569971	553.368823330823	1074.551609803557	40.209606188271	521.594331600964	1234.646588956580	116.027641631174	564.785739893154	1155.928834380724	41.895561932939	597.191718612806	1358.037984814810	82.347177476985	595.894688495786	677.330162063129	38.586622501866	362.888378847950	750.893538896297	34.399389987148	282.075411796830	834.233630895504	95.345490914059	308.662459971480	962.833199374363	43.289796336140	280.021870733511	1066.018620174242	1111.515940865107	86.504074099482	1318.674391466263	1067.701054665868	111.372157788859	803.959239440787	1150.509780561047	712.268658043867	720.833819620025	908.132373122760	755.022760479454	
73	56.933428571429	779.973541154286	994.871031242189	436.290794083598	980.625584670895	1416.578311808061	257.117694922441	1078.197445064017	1344.926414124754	422.926659753534	991.574652088560	1427.332306741490	591.181483959893	979.097654413709	1477.507872355840	409.457792003420	1001.429006796943	921.664899465824	558.572696214710	997.917007290019	951.786486765979	284.438764719011	1074.366046345475	749.170983266775	529.828122224996	1024.861237032981	626.813675622290	599.425968997705	1114.759376648033	592.917957535315	519.099699558533	1145.902871977346	511.645489648838	532.461196144440	995.683888379999	725.148907720223	306.814121297905	875.901260127765	635.149280616473	241.381922215528	931.799067030551	537.904638622210	303.940928726727	916.783755918250	471.013398225126	311.698367245387	880.807111746352	406.976862840606	302.720934194877	777.120702107664	305.732038725185	248.180733043632	811.205690821849	188.384253912111	320.748675390322	1133.479461848228	421.582024985675	543.730033902416	1082.409337688146	305.228592260404	602.994860651769	1155.722031244236	222.735744127690	552.275925473526	1068.321402385728	39.574353774313	520.305912979327	1230.112678120475	111.098961363210	562.771855746956	1149.691629925815	39.842278992688	595.995895203042	1352.843284639046	74.612527291689	593.866962577973	669.119325178496	39.229171185988	362.649849449235	742.801789062112	34.584406792404	282.038745251464	826.440116133285	95.286674865075	308.601158724651	954.886127365345	42.644385407883	279.914119414955	1065.738463223183	1109.614610650734	89.352381824216	1318.810072897169	1070.431326391932	114.589441541780	802.535333349369	1151.330970958509	713.637422594945	717.160730426587	909.592774150486	756.378600370050	
74	56.945142857143	782.252721307689	993.622404997469	439.334868419516	981.644734044711	1415.401224604177	259.823845731405	1079.433582119162	1344.210318150886	425.684445610597	992.438983782973	1426.597161624010	593.979130036074	979.993240844947	1476.628002258584	412.214310065532	1004.043986135231	920.514031498027	561.288563215233	1000.227714335758	950.727716012701	287.368276782002	1076.818018796626	747.146220579953	531.986091046342	1025.279071829757	625.018164792965	600.217695803246	1115.062078473802	590.937347569136	520.120392458086	1144.730321723472	509.005904284297	532.640487271556	997.178835104736	723.824184981654	308.786938278225	876.518088945062	634.444126818359	243.759294922822	932.337613486078	536.541593270473	305.688584535678	917.084759773320	468.967018932533	313.084383928802	879.406336141408	405.511659376361	304.079729267208	773.392019497131	306.631578481493	249.517872111191	805.343008791366	188.110375524977	321.082341413391	1132.008132728221	418.593182492449	543.749684277320	1080.074139916728	302.669563368887	602.895364808807	1151.797838301481	219.580158620660	551.427577718341	1060.808387875964	39.554897462438	519.436975066189	1224.524808339029	106.592243732425	561.086798227271	1142.264718120234	38.289041679628	595.152430148956	1346.562122283903	67.062150777507	591.965847608776	660.980866103577	40.407605261582	362.344215941508	734.768453175100	34.989337009883	281.974999320512	818.851345953259	95.286464444513	308.455247295054	946.958154146080	41.985565379291	279.802614601706	1065.011448707212	1107.484389761689	92.522790483519	1318.369678404928	1071.913585147341	117.899936540993	802.344425100977	1151.319999140683	715.118596473920	715.250157815167	910.070560495714	757.810614270400	
75	56.956857142857	784.308963636737	992.887688036429	442.426699937493	982.921140813173	1414.500984845034	262.593588622925	1080.760487751593	1343.645409711533	428.492087246060	993.470872602580	1426.075441610309	596.877551705979	981.133657487139	1476.080253980623	415.058686637340	1006.474815952778	919.788910588022	564.222620982957	1002.367073177449	949.922066342051	290.472460966634	1079.360411843843	746.005335651405	534.318671691547	1026.167347517501	624.080039841370	601.286489201929	1115.932323295619	589.876582081891	521.533644945058	1144.202378946412	507.066673088578	533.311099872882	998.931056125338	722.846157604047	310.966340260404	877.727484096762	633.784409474850	246.313796113618	933.828746447587	535.359318167517	307.552227743034	918.389528099068	466.928049145731	314.479841358773	878.845223929288	404.086176657137	305.456104994490	770.308316754789	307.892611093995	250.941766937664	799.955420039387	188.123221445979	321.370448698270	1130.918863465660	416.281202451412	544.099892676119	1077.949535878722	300.940142113433	603.329139396971	1147.607339415471	216.998529208102	550.889482261786	1052.504321586693	39.942502636786	518.965619484276	1218.146846518273	102.776319989641	559.835767392816	1134.102431189662	37.209777002633	594.663911048797	1339.522060424243	60.272659057059	590.349890087256	652.979041414763	42.336986473366	361.968286246159	726.821793055510	35.735680530612	281.876487014120	811.548746969538	95.377711120865	308.193446818051	939.034824049845	41.301748832023	279.694419523739	1063.810598388498	1105.207444576166	96.032971525365	1317.357038025136	1072.110192107537	121.293188900040	803.368327415850	1150.542551956381	716.768085552800	715.177788026791	909.583729012389	759.341304744735	
76	56.968571428571	786.139521094291	992.705020458792	445.555951523273	984.460420251726	1413.954305805086	265.423306638301	1082.177734058166	1343.278618467481	431.345651532664	994.690057965283	1425.815829207470	599.859423930891	982.532847580128	1475.912292883030	417.976286083656	1008.686466820915	919.532261454253	567.363195708542	1004.275420617443	949.438351812327	293.723334705519	1081.862823204275	745.722223493403	536.849590643026	1027.391015209785	623.953922585625	602.697810821809	1117.181296671211	589.622853605379	523.378801147634	1144.112665495869	505.785921085608	534.550832117879	1000.942837601184	722.287101681964	313.334430724249	879.594197968796	633.194792370632	248.991006846611	936.401499303590	534.408032610463	309.462023540732	920.838584165539	464.941238055371	315.781455359362	879.243710923872	402.755172223264	306.777743017973	767.985141384946	309.602967756705	252.410712750867	795.155136833941	188.524054228732	321.576517460457	1130.059953792638	414.631128081176	544.843326580473	1075.941486052170	299.968222777023	604.291697994312	1143.204695121682	215.010730839265	550.695673147380	1043.802747026600	40.546475534827	518.835433646745	1211.185300757386	99.819540628362	559.060731226091	1125.561246392134	36.547362242701	594.495006135212	1331.978001668658	54.640490357252	589.124637122943	645.200575406227	45.246555129162	361.523809390004	719.002801450192	36.971028864512	281.738106855153	804.622409737149	95.606765605231	307.790471293672	931.099154108907	40.575018484778	279.598623560251	1062.115773100427	1102.880839611984	99.896823669531	1315.766214302406	1070.993695025021	124.761933756622	805.553258984035	1149.113396182869	718.625820094032	716.998663165502	908.193914402247	760.984069172199	
